<svg width="20" height="22" viewBox="0 0 20 22" fill="none" xmlns="http://www.w3.org/2000/svg">
<path fill-rule="evenodd" clip-rule="evenodd" d="M10 3.01111C11.6886 3.01111 13.2484 3.90509 14.1624 5.5219L15.587 4.03139C14.661 2.66122 13.3496 1.71042 11.8654 1.27717C11.7605 1.00593 11.5948 0.75378 11.3695 0.5422C10.5997 -0.180733 9.40027 -0.180733 8.63052 0.5422C8.40573 0.753316 8.24021 1.00483 8.13531 1.27538C5.23535 2.11713 3 4.92711 3 8.99619C3 11.629 2.46898 13.1042 1.48596 14.1733C1.3216 14.3521 0.876302 14.7615 0.574662 15.0389C0.431949 15.1701 0.321394 15.2718 0.287965 15.3055L0 15.5974V19.006H6.08798C6.29384 20.0676 6.87009 20.7779 7.9122 21.4135C9.19414 22.1955 10.8059 22.1955 12.0878 21.4135C13.0075 20.8525 13.6241 19.9904 13.8743 19.006H20V15.5974L19.712 15.3055C19.6817 15.2747 19.5757 15.1769 19.437 15.0491C19.1363 14.7718 18.6823 14.3531 18.5154 14.1709C18.1554 13.7779 17.8559 13.3308 17.6209 12.7933L16.1337 14.2805C16.3931 14.7349 16.6957 15.1447 17.0402 15.5208C17.2506 15.7506 17.7016 16.1706 18 16.445V17.0069H2V16.4454C2.29607 16.1742 2.74843 15.7546 2.95849 15.5261C4.29422 14.0734 5 12.1127 5 8.99619C5 5.21768 7.33277 3.01111 10 3.01111ZM8.95402 19.707C8.56071 19.4671 8.3199 19.2687 8.17862 19.006H11.7367C11.5758 19.2856 11.3434 19.5256 11.046 19.707C10.4037 20.0988 9.59627 20.0988 8.95402 19.707Z" fill="black"/>
<circle cx="16" cy="9" r="4" fill="#F70304"/>
</svg>
