<svg width="24" height="22" viewBox="0 0 24 22" fill="none" xmlns="http://www.w3.org/2000/svg">
<path fill-rule="evenodd" clip-rule="evenodd" d="M2.70713 0.292969L1.29292 1.70718L5.35774 5.772C4.97908 6.08582 4.60434 6.42283 4.23373 6.78123C3.40451 7.58312 2.65433 8.43923 1.99393 9.2957C1.59543 9.81252 1.3125 10.2191 1.15759 10.4613L0.812988 11.0001L1.15759 11.5389C1.3125 11.7811 1.59543 12.1876 1.99393 12.7045C2.65433 13.5609 3.40451 14.417 4.23373 15.2189C6.66434 17.5695 9.27247 19.0001 12 19.0001C13.7209 19.0001 15.3943 18.4306 17.0056 17.4198L21.2929 21.7072L22.7071 20.293L2.70713 0.292969ZM15.5447 15.9589L14.032 14.4463C13.4365 14.7981 12.7418 15.0001 12 15.0001C9.79088 15.0001 8.00002 13.2092 8.00002 11.0001C8.00002 10.2583 8.20195 9.56362 8.55384 8.96811L6.77974 7.19401C6.39235 7.50642 6.0068 7.8488 5.62406 8.21893C4.86986 8.94828 4.18241 9.73279 3.57777 10.517C3.44718 10.6863 3.32651 10.8479 3.21619 11.0001C3.32651 11.1523 3.44718 11.3138 3.57777 11.4832C4.18241 12.2674 4.86986 13.0519 5.62406 13.7812C7.71751 15.8057 9.89495 17.0001 12 17.0001C13.1682 17.0001 14.3586 16.6323 15.5447 15.9589ZM10.0678 10.482C10.0236 10.6473 10 10.8209 10 11.0001C10 12.1046 10.8955 13.0001 12 13.0001C12.1792 13.0001 12.3528 12.9765 12.5181 12.9323L10.0678 10.482ZM20.0981 14.891L18.6838 13.4768C19.318 12.8357 19.9009 12.1593 20.4223 11.4832C20.5529 11.3138 20.6735 11.1523 20.7839 11.0001C20.6735 10.8479 20.5529 10.6863 20.4223 10.517C19.8176 9.73279 19.1302 8.94828 18.376 8.21893C16.2825 6.19445 14.1051 5.00008 12 5.00008C11.4777 5.00008 10.951 5.0736 10.4221 5.21509L8.84017 3.63312C9.87262 3.22145 10.9271 3.00008 12 3.00008C14.7276 3.00008 17.3357 4.4307 19.7663 6.78123C20.5955 7.58312 21.3457 8.43923 22.0061 9.2957C22.4046 9.81252 22.6875 10.2191 22.8425 10.4613L23.1871 11.0001L22.8425 11.5389C22.6875 11.7811 22.4046 12.1876 22.0061 12.7045C21.4349 13.4452 20.7966 14.1857 20.0981 14.891Z" fill="black"/>
</svg>
