<svg width="30" height="30" viewBox="0 0 30 30" fill="none" xmlns="http://www.w3.org/2000/svg">
<path d="M26.5 14.3095V2.34127C26.5 1.32436 25.9698 0.5 24.9688 0.5H5.3125C4.31148 0.5 3.5 1.32436 3.5 2.34127V9.70635M3.5 14.4059V9.70635M1.01399 13.8167C0.775159 13.9185 0.593721 14.1104 0.535396 14.4059C0.51218 14.5236 0.5 14.6453 0.5 14.7698V27.6587C0.5 28.6756 1.31148 29.5 2.3125 29.5H27.6875C28.6885 29.5 29.5 28.6756 29.5 27.6587V14.7698C29.5 14.6453 29.4878 14.5236 29.4646 14.4059C29.3239 13.6931 28.467 13.5835 27.8161 13.8856L15.7531 19.4838C15.2748 19.7058 14.7252 19.7058 14.2469 19.4838L2.18392 13.8856C1.80285 13.7088 1.35121 13.673 1.01399 13.8167ZM1.01399 13.8167L3.5 9.70635M28.986 13.8167L26.5 9.5" stroke="#000577"/>
</svg>
